<svg width="53" height="57" viewBox="0 0 53 57" fill="none" xmlns="http://www.w3.org/2000/svg">
<path fill-rule="evenodd" clip-rule="evenodd" d="M4.11335 5.74758L45.8158 1.25602C48.9169 0.922027 50.4674 0.755028 51.4629 1.64904C52.4584 2.54306 52.4584 4.10255 52.4584 7.22152V27.4989H25.4959L38.2756 16.55L36.9744 15.0312L22.1411 27.7395L21.2547 28.4989L22.1411 29.2583L36.9744 41.9667L38.2756 40.4479L25.4959 29.4989H52.4584V49.7763C52.4584 52.8953 52.4584 54.4548 51.4629 55.3488C50.4674 56.2428 48.9169 56.0758 45.8158 55.7418L4.11335 51.2503C2.4149 51.0673 1.56567 50.9759 1.05368 50.4058C0.541687 49.8357 0.541687 48.9816 0.541687 47.2733V9.72457C0.541687 8.0163 0.541687 7.16216 1.05368 6.59207C1.56567 6.02197 2.41489 5.93051 4.11335 5.74758Z" fill="black"/>
</svg>
